<svg width="55" height="55" viewBox="0 0 55 55" fill="none" xmlns="http://www.w3.org/2000/svg">
<path d="M34.9896 7.26823C35.4251 7.26823 35.8605 7.42864 36.2042 7.77239C36.8688 8.43698 36.8688 9.53698 36.2042 10.2016L21.2626 25.1432C20.1626 26.2432 20.1626 28.0307 21.2626 29.1307L36.2042 44.0724C36.8688 44.737 36.8688 45.837 36.2042 46.5016C35.5396 47.1661 34.4396 47.1661 33.7751 46.5016L18.8334 31.5599C17.6646 30.3911 17.0001 28.8099 17.0001 27.137C17.0001 25.4641 17.6417 23.8828 18.8334 22.7141L33.7751 7.77239C34.1188 7.45156 34.5542 7.26823 34.9896 7.26823Z" fill="#E8CD8B"/>
</svg>
