<svg width="16" height="16" viewBox="0 0 16 16" fill="none" xmlns="http://www.w3.org/2000/svg">
<path d="M1.20874 8.99711H12.3787L7.49874 13.8476C7.10874 14.2353 7.10874 14.8714 7.49874 15.259C7.88874 15.6467 8.51874 15.6467 8.90874 15.259L15.4987 8.70886C15.8887 8.32122 15.8887 7.69502 15.4987 7.30738L8.91874 0.747261C8.73191 0.56114 8.47826 0.456543 8.21374 0.456543C7.94922 0.456543 7.69557 0.56114 7.50874 0.747261C7.11874 1.1349 7.11874 1.7611 7.50874 2.14874L12.3787 7.00919H1.20874C0.65874 7.00919 0.20874 7.45647 0.20874 8.00315C0.20874 8.54983 0.65874 8.99711 1.20874 8.99711Z" fill="#E8CD8B"/>
</svg>
