<svg width="55" height="55" viewBox="0 0 55 55" fill="none" xmlns="http://www.w3.org/2000/svg">
<path d="M20.0104 47.7318C19.5749 47.7318 19.1395 47.5714 18.7958 47.2276C18.1312 46.563 18.1312 45.463 18.7958 44.7984L33.7374 29.8568C34.8374 28.7568 34.8374 26.9693 33.7374 25.8693L18.7958 10.9276C18.1312 10.263 18.1312 9.16302 18.7958 8.49844C19.4604 7.83385 20.5604 7.83385 21.2249 8.49844L36.1666 23.4401C37.3354 24.6089 37.9999 26.1901 37.9999 27.863C37.9999 29.5359 37.3583 31.1172 36.1666 32.2859L21.2249 47.2276C20.8812 47.5484 20.4458 47.7318 20.0104 47.7318Z" fill="#13468C"/>
</svg>
