<svg width="35" height="35" viewBox="0 0 35 35" fill="none" xmlns="http://www.w3.org/2000/svg">
<path d="M11.5735 8.38544C10.9804 8.38544 10.4885 7.8896 10.4885 7.29169V2.91669C10.4885 2.31877 10.9804 1.82294 11.5735 1.82294C12.1667 1.82294 12.6586 2.31877 12.6586 2.91669V7.29169C12.6586 7.8896 12.1667 8.38544 11.5735 8.38544Z" fill="#E8CD8B"/>
<path d="M23.147 8.38544C22.5539 8.38544 22.062 7.8896 22.062 7.29169V2.91669C22.062 2.31877 22.5539 1.82294 23.147 1.82294C23.7402 1.82294 24.232 2.31877 24.232 2.91669V7.29169C24.232 7.8896 23.7402 8.38544 23.147 8.38544Z" fill="#E8CD8B"/>
<path d="M12.2968 21.1458C12.1087 21.1458 11.9206 21.1021 11.747 21.0292C11.559 20.9563 11.4143 20.8541 11.2696 20.7229C11.0092 20.4458 10.8501 20.0812 10.8501 19.6875C10.8501 19.4979 10.8935 19.3083 10.9658 19.1333C11.0382 18.9583 11.1394 18.7979 11.2696 18.6521C11.4143 18.5208 11.559 18.4187 11.747 18.3458C12.2679 18.1271 12.9189 18.2437 13.3239 18.6521C13.5843 18.9292 13.7435 19.3083 13.7435 19.6875C13.7435 19.775 13.729 19.8771 13.7145 19.9792C13.7001 20.0667 13.6711 20.1542 13.6277 20.2417C13.5988 20.3292 13.5554 20.4166 13.4975 20.5041C13.4541 20.5771 13.3818 20.65 13.3239 20.7229C13.0491 20.9854 12.6729 21.1458 12.2968 21.1458Z" fill="#E8CD8B"/>
<path d="M17.3603 21.1458C17.1722 21.1458 16.9841 21.1021 16.8105 21.0292C16.6225 20.9563 16.4778 20.8542 16.3331 20.7229C16.0727 20.4458 15.9136 20.0812 15.9136 19.6875C15.9136 19.4979 15.957 19.3083 16.0293 19.1333C16.1016 18.9583 16.2029 18.7979 16.3331 18.6521C16.4778 18.5208 16.6225 18.4187 16.8105 18.3458C17.3313 18.1125 17.9823 18.2438 18.3874 18.6521C18.6478 18.9292 18.807 19.3083 18.807 19.6875C18.807 19.775 18.7925 19.8771 18.778 19.9792C18.7636 20.0667 18.7346 20.1542 18.6912 20.2417C18.6623 20.3292 18.6189 20.4167 18.561 20.5042C18.5176 20.5771 18.4453 20.65 18.3874 20.7229C18.1125 20.9854 17.7364 21.1458 17.3603 21.1458Z" fill="#E8CD8B"/>
<path d="M22.4237 21.1458C22.2357 21.1458 22.0476 21.1021 21.874 21.0292C21.6859 20.9563 21.5413 20.8542 21.3966 20.7229C21.3387 20.65 21.2809 20.5771 21.223 20.5042C21.1651 20.4167 21.1217 20.3292 21.0928 20.2417C21.0494 20.1542 21.0205 20.0667 21.006 19.9792C20.9915 19.8771 20.9771 19.775 20.9771 19.6875C20.9771 19.3083 21.1362 18.9292 21.3966 18.6521C21.5413 18.5208 21.6859 18.4187 21.874 18.3458C22.4093 18.1125 23.0458 18.2438 23.4509 18.6521C23.7113 18.9292 23.8704 19.3083 23.8704 19.6875C23.8704 19.775 23.856 19.8771 23.8415 19.9792C23.827 20.0667 23.7981 20.1542 23.7547 20.2417C23.7258 20.3292 23.6824 20.4167 23.6245 20.5042C23.5811 20.5771 23.5088 20.65 23.4509 20.7229C23.176 20.9854 22.7999 21.1458 22.4237 21.1458Z" fill="#E8CD8B"/>
<path d="M12.2968 26.25C12.1087 26.25 11.9206 26.2063 11.747 26.1333C11.5734 26.0604 11.4143 25.9583 11.2696 25.8271C11.0092 25.55 10.8501 25.1708 10.8501 24.7917C10.8501 24.6021 10.8935 24.4125 10.9658 24.2375C11.0382 24.0479 11.1394 23.8875 11.2696 23.7563C11.8049 23.2167 12.7887 23.2167 13.3239 23.7563C13.5843 24.0333 13.7435 24.4125 13.7435 24.7917C13.7435 25.1708 13.5843 25.55 13.3239 25.8271C13.0491 26.0896 12.6729 26.25 12.2968 26.25Z" fill="#E8CD8B"/>
<path d="M17.3603 26.25C16.9841 26.25 16.608 26.0896 16.3331 25.8271C16.0727 25.55 15.9136 25.1708 15.9136 24.7917C15.9136 24.6021 15.957 24.4125 16.0293 24.2375C16.1016 24.0479 16.2029 23.8875 16.3331 23.7563C16.8684 23.2167 17.8521 23.2167 18.3874 23.7563C18.5176 23.8875 18.6189 24.0479 18.6912 24.2375C18.7636 24.4125 18.807 24.6021 18.807 24.7917C18.807 25.1708 18.6478 25.55 18.3874 25.8271C18.1125 26.0896 17.7364 26.25 17.3603 26.25Z" fill="#E8CD8B"/>
<path d="M22.4237 26.2501C22.0476 26.2501 21.6715 26.0896 21.3966 25.8271C21.2664 25.6959 21.1651 25.5355 21.0928 25.3459C21.0205 25.1709 20.9771 24.9813 20.9771 24.7917C20.9771 24.6021 21.0205 24.4125 21.0928 24.2375C21.1651 24.048 21.2664 23.8876 21.3966 23.7563C21.7293 23.4209 22.2357 23.2605 22.6986 23.3625C22.7999 23.3771 22.8867 23.4063 22.9735 23.45C23.0603 23.4792 23.1471 23.523 23.2339 23.5813C23.3062 23.6251 23.3786 23.698 23.4509 23.7563C23.7113 24.0334 23.8704 24.4126 23.8704 24.7917C23.8704 25.1709 23.7113 25.55 23.4509 25.8271C23.176 26.0896 22.7999 26.2501 22.4237 26.2501Z" fill="#E8CD8B"/>
<path d="M29.6573 14.35H5.06353C4.47039 14.35 3.97852 13.8541 3.97852 13.2562C3.97852 12.6583 4.47039 12.1625 5.06353 12.1625H29.6573C30.2504 12.1625 30.7423 12.6583 30.7423 13.2562C30.7423 13.8541 30.2504 14.35 29.6573 14.35Z" fill="#E8CD8B"/>
<path d="M23.1471 33.1771H11.5736C6.29318 33.1771 3.25513 30.1146 3.25513 24.7917V12.3959C3.25513 7.07294 6.29318 4.01044 11.5736 4.01044H23.1471C28.4275 4.01044 31.4656 7.07294 31.4656 12.3959V24.7917C31.4656 30.1146 28.4275 33.1771 23.1471 33.1771ZM11.5736 6.19794C7.43606 6.19794 5.42516 8.22502 5.42516 12.3959V24.7917C5.42516 28.9625 7.43606 30.9896 11.5736 30.9896H23.1471C27.2846 30.9896 29.2955 28.9625 29.2955 24.7917V12.3959C29.2955 8.22502 27.2846 6.19794 23.1471 6.19794H11.5736Z" fill="#E8CD8B"/>
</svg>
