<svg width="50" height="50" viewBox="0 0 50 50" fill="none" xmlns="http://www.w3.org/2000/svg">
<path d="M25 47.3958C12.6458 47.3958 2.60413 37.3542 2.60413 25C2.60413 12.6458 12.6458 2.60417 25 2.60417C37.3541 2.60417 47.3958 12.6458 47.3958 25C47.3958 37.3542 37.3541 47.3958 25 47.3958ZM25 5.72917C14.375 5.72917 5.72913 14.375 5.72913 25C5.72913 35.625 14.375 44.2708 25 44.2708C35.625 44.2708 44.2708 35.625 44.2708 25C44.2708 14.375 35.625 5.72917 25 5.72917Z" fill="#E8CD8B"/>
<path d="M31.2505 33.3333C30.0839 33.3333 29.1464 32.3958 29.1464 31.25C29.1464 30.1042 30.0839 29.1667 31.2297 29.1667C32.3755 29.1667 33.313 30.1042 33.313 31.25C33.313 32.3958 32.3964 33.3333 31.2505 33.3333Z" fill="#E8CD8B"/>
<path d="M18.7708 20.8333C17.6041 20.8333 16.6666 19.8958 16.6666 18.75C16.6666 17.6042 17.6041 16.6667 18.75 16.6667C19.8958 16.6667 20.8333 17.6042 20.8333 18.75C20.8333 19.8958 19.9166 20.8333 18.7708 20.8333Z" fill="#E8CD8B"/>
<path d="M18.75 32.8124C18.3541 32.8124 17.9583 32.6667 17.6458 32.3542C17.0416 31.75 17.0416 30.7499 17.6458 30.1457L30.1458 17.6457C30.7499 17.0415 31.75 17.0415 32.3542 17.6457C32.9584 18.2499 32.9584 19.25 32.3542 19.8542L19.8542 32.3542C19.5417 32.6667 19.1458 32.8124 18.75 32.8124Z" fill="#E8CD8B"/>
</svg>
