<svg width="25" height="25" viewBox="0 0 25 25" fill="none" xmlns="http://www.w3.org/2000/svg">
<path d="M12.5 25C5.60465 25 0 19.3953 0 12.5C0 5.60465 5.60465 0 12.5 0C19.3953 0 25 5.60465 25 12.5C25 19.3953 19.3953 25 12.5 25ZM12.5 1.74419C6.56977 1.74419 1.74419 6.56977 1.74419 12.5C1.74419 18.4302 6.56977 23.2558 12.5 23.2558C18.4302 23.2558 23.2558 18.4302 23.2558 12.5C23.2558 6.56977 18.4302 1.74419 12.5 1.74419Z" fill="white"/>
<path d="M9.27467 23.6483H8.12879C7.65898 23.6483 7.26937 23.2595 7.26937 22.7907C7.26937 22.3218 7.63606 21.9445 8.10587 21.9331C6.30683 15.8042 6.30683 9.19503 8.10587 3.06613C7.63606 3.05469 7.26937 2.67736 7.26937 2.20854C7.26937 1.73973 7.65898 1.35095 8.12879 1.35095H9.27467C9.54968 1.35095 9.81324 1.48817 9.97366 1.70542C10.1341 1.93411 10.1799 2.21998 10.0882 2.48297C7.93399 8.94347 7.93399 16.0557 10.0882 22.5277C10.1799 22.7907 10.1341 23.0765 9.97366 23.3052C9.81324 23.511 9.54968 23.6483 9.27467 23.6483Z" fill="white"/>
<path d="M15.7252 23.6483C15.6337 23.6483 15.5422 23.6368 15.4508 23.6025C15.0049 23.4539 14.7533 22.9625 14.9134 22.5167C17.0629 16.059 17.0629 8.94986 14.9134 2.48074C14.7648 2.03499 15.0049 1.54352 15.4508 1.39493C15.9081 1.24635 16.3883 1.48637 16.5369 1.93212C18.8122 8.74413 18.8122 16.2419 16.5369 23.0425C16.4226 23.4197 16.0796 23.6483 15.7252 23.6483Z" fill="white"/>
<path d="M12.4943 18.2432C9.30566 18.2432 6.12849 17.7967 3.06562 16.8922C3.05419 17.3502 2.67704 17.728 2.20847 17.728C1.73989 17.728 1.35132 17.3388 1.35132 16.8694V15.7244C1.35132 15.4497 1.48846 15.1863 1.70561 15.026C1.93418 14.8658 2.2199 14.82 2.48275 14.9116C8.93994 17.064 16.06 17.064 22.5172 14.9116C22.78 14.82 23.0658 14.8658 23.2943 15.026C23.5229 15.1863 23.6486 15.4497 23.6486 15.7244V16.8694C23.6486 17.3388 23.26 17.728 22.7915 17.728C22.3229 17.728 21.9457 17.3617 21.9343 16.8922C18.86 17.7967 15.6828 18.2432 12.4943 18.2432Z" fill="white"/>
<path d="M22.7996 10.1346C22.7081 10.1346 22.6166 10.1232 22.5251 10.0888C16.0633 7.93766 8.93816 7.93766 2.47635 10.0888C2.01887 10.2376 1.53853 9.99729 1.38985 9.55104C1.25261 9.09334 1.49278 8.61276 1.93882 8.46401C8.75517 6.18696 16.2577 6.18696 23.0627 8.46401C23.5087 8.61276 23.7603 9.10478 23.6002 9.55104C23.4973 9.90576 23.1541 10.1346 22.7996 10.1346Z" fill="white"/>
</svg>
