<svg width="35" height="35" viewBox="0 0 35 35" fill="none" xmlns="http://www.w3.org/2000/svg">
<path d="M17.3602 20.6646C14.2787 20.6646 11.7615 18.1417 11.7615 15.0208C11.7615 11.9 14.2787 9.39166 17.3602 9.39166C20.4416 9.39166 22.9589 11.9146 22.9589 15.0354C22.9589 18.1562 20.4416 20.6646 17.3602 20.6646ZM17.3602 11.5792C15.4795 11.5792 13.9315 13.125 13.9315 15.0354C13.9315 16.9458 15.465 18.4917 17.3602 18.4917C19.2553 18.4917 20.7888 16.9458 20.7888 15.0354C20.7888 13.125 19.2409 11.5792 17.3602 11.5792Z" fill="#E8CD8B"/>
<path d="M17.3603 33.1917C15.2192 33.1917 13.0636 32.375 11.3854 30.7563C7.11769 26.6146 2.40148 20.0084 4.18091 12.1479C5.78674 5.01669 11.9641 1.82294 17.3603 1.82294C17.3603 1.82294 17.3603 1.82294 17.3747 1.82294C22.7709 1.82294 28.9482 5.01669 30.5541 12.1625C32.319 20.0229 27.6028 26.6146 23.3351 30.7563C21.6569 32.375 19.5014 33.1917 17.3603 33.1917ZM17.3603 4.01044C13.1504 4.01044 7.73977 6.27085 6.30755 12.6292C4.74512 19.4979 9.02732 25.4188 12.9045 29.1667C15.4072 31.6021 19.3278 31.6021 21.8305 29.1667C25.6932 25.4188 29.9754 19.4979 28.4419 12.6292C26.9952 6.27085 21.5701 4.01044 17.3603 4.01044Z" fill="#E8CD8B"/>
</svg>
