<svg width="40" height="40" viewBox="0 0 40 40" fill="none" xmlns="http://www.w3.org/2000/svg">
<path d="M20.1998 22.5503C20.1665 22.5503 20.1165 22.5503 20.0831 22.5503C20.0331 22.5503 19.9665 22.5503 19.9165 22.5503C16.1331 22.4337 13.2998 19.4837 13.2998 15.8503C13.2998 12.1503 16.3165 9.13367 20.0165 9.13367C23.7165 9.13367 26.7331 12.1503 26.7331 15.8503C26.7165 19.5003 23.8665 22.4337 20.2498 22.5503C20.2165 22.5503 20.2165 22.5503 20.1998 22.5503ZM19.9998 11.617C17.6665 11.617 15.7831 13.517 15.7831 15.8337C15.7831 18.117 17.5665 19.967 19.8331 20.0503C19.8831 20.0337 20.0498 20.0337 20.2165 20.0503C22.4498 19.9337 24.1998 18.1003 24.2165 15.8337C24.2165 13.517 22.3331 11.617 19.9998 11.617Z" fill="#E7CA83"/>
<path d="M20.0001 37.918C15.5167 37.918 11.2334 36.2514 7.91672 33.218C7.61672 32.9514 7.48339 32.5514 7.51672 32.168C7.73339 30.1847 8.96672 28.3347 11.0167 26.968C15.9834 23.668 24.0334 23.668 28.9834 26.968C31.0334 28.3514 32.2667 30.1847 32.4834 32.168C32.5334 32.568 32.3834 32.9514 32.0834 33.218C28.7667 36.2514 24.4834 37.918 20.0001 37.918ZM10.1334 31.8347C12.9001 34.1514 16.3834 35.418 20.0001 35.418C23.6167 35.418 27.1001 34.1514 29.8667 31.8347C29.5667 30.818 28.7667 29.8347 27.5834 29.0347C23.4834 26.3014 16.5334 26.3014 12.4001 29.0347C11.2167 29.8347 10.4334 30.818 10.1334 31.8347Z" fill="#E7CA83"/>
<path d="M19.9999 37.9167C10.1166 37.9167 2.08325 29.8834 2.08325 20C2.08325 10.1167 10.1166 2.08337 19.9999 2.08337C29.8833 2.08337 37.9166 10.1167 37.9166 20C37.9166 29.8834 29.8833 37.9167 19.9999 37.9167ZM19.9999 4.58337C11.4999 4.58337 4.58325 11.5 4.58325 20C4.58325 28.5 11.4999 35.4167 19.9999 35.4167C28.4999 35.4167 35.4166 28.5 35.4166 20C35.4166 11.5 28.4999 4.58337 19.9999 4.58337Z" fill="#E7CA83"/>
</svg>
