<svg width="37" height="37" viewBox="0 0 37 37" fill="none" xmlns="http://www.w3.org/2000/svg">
<path d="M18.5 37C8.29488 37 0 28.7051 0 18.5C0 8.29488 8.29488 0 18.5 0C28.7051 0 37 8.29488 37 18.5C37 28.7051 28.7051 37 18.5 37ZM18.5 2.5814C9.72326 2.5814 2.5814 9.72326 2.5814 18.5C2.5814 27.2767 9.72326 34.4186 18.5 34.4186C27.2767 34.4186 34.4186 27.2767 34.4186 18.5C34.4186 9.72326 27.2767 2.5814 18.5 2.5814Z" fill="#E7CA83"/>
<path d="M13.7268 35H12.0308C11.3355 35 10.7589 34.4246 10.7589 33.7308C10.7589 33.0369 11.3016 32.4785 11.9969 32.4615C9.33436 23.3908 9.33436 13.6092 11.9969 4.53846C11.3016 4.52154 10.7589 3.96308 10.7589 3.26923C10.7589 2.57538 11.3355 2 12.0308 2H13.7268C14.1338 2 14.5238 2.20308 14.7613 2.52462C14.9987 2.86308 15.0665 3.28615 14.9309 3.67538C11.7425 13.2369 11.7425 23.7631 14.9309 33.3415C15.0665 33.7308 14.9987 34.1538 14.7613 34.4923C14.5238 34.7969 14.1338 35 13.7268 35Z" fill="#E7CA83"/>
<path d="M23.2731 35C23.1377 35 23.0023 34.9831 22.867 34.9323C22.207 34.7124 21.8348 33.9851 22.0717 33.3253C25.2529 23.768 25.2529 13.2464 22.0717 3.67209C21.8517 3.01237 22.207 2.285 22.867 2.06509C23.5438 1.84519 24.2545 2.20042 24.4745 2.86013C27.8418 12.9419 27.8418 24.0386 24.4745 34.1035C24.3053 34.6617 23.7976 35 23.2731 35Z" fill="#E7CA83"/>
<path d="M18.4915 27C13.7724 27 9.07022 26.3392 4.53716 25.0005C4.52025 25.6783 3.96207 26.2375 3.26858 26.2375C2.57509 26.2375 2 25.6614 2 24.9666V23.2722C2 22.8655 2.20297 22.4758 2.52435 22.2385C2.86263 22.0013 3.28549 21.9335 3.67453 22.0691C13.2312 25.2547 23.7688 25.2547 33.3255 22.0691C33.7145 21.9335 34.1374 22.0013 34.4757 22.2385C34.8139 22.4758 35 22.8655 35 23.2722V24.9666C35 25.6614 34.4249 26.2375 33.7314 26.2375C33.0379 26.2375 32.4798 25.6953 32.4628 25.0005C27.9129 26.3392 23.2107 27 18.4915 27Z" fill="#E7CA83"/>
<path d="M33.7435 15C33.608 15 33.4726 14.9831 33.3372 14.9323C23.7737 11.7485 13.2285 11.7485 3.66504 14.9323C2.98798 15.1524 2.27707 14.7968 2.05703 14.1363C1.85391 13.4589 2.20936 12.7477 2.8695 12.5275C12.9577 9.15749 24.0615 9.15749 34.1328 12.5275C34.7929 12.7477 35.1653 13.4759 34.9283 14.1363C34.776 14.6613 34.2682 15 33.7435 15Z" fill="#E7CA83"/>
</svg>
