<svg width="40" height="40" viewBox="0 0 40 40" fill="none" xmlns="http://www.w3.org/2000/svg">
<path d="M24.787 38H15.2107C13.1039 38 11.3482 37.7811 9.86388 37.3094C9.32122 37.1409 8.97009 36.585 9.00201 35.9954C9.40102 30.9587 14.2371 27 19.9988 27C25.7606 27 30.5807 30.9418 30.9956 35.9954C31.0435 36.6018 30.6924 37.1409 30.1338 37.3094C28.6494 37.7811 26.8938 38 24.787 38ZM11.5717 35.1531C12.6251 35.3721 13.8221 35.4732 15.2107 35.4732H24.787C26.1756 35.4732 27.3726 35.3721 28.426 35.1531C27.5801 31.9189 24.0847 29.5268 19.9988 29.5268C15.9129 29.5268 12.4176 31.9189 11.5717 35.1531Z" fill="#E7CA83"/>
<path d="M25.0002 3.33398H15.0002C6.66683 3.33398 3.3335 6.66732 3.3335 15.0006V25.0006C3.3335 31.3006 5.2335 34.7506 9.76683 36.034C10.1335 31.7006 14.5835 28.2839 20.0002 28.2839C25.4168 28.2839 29.8668 31.7006 30.2335 36.034C34.7668 34.7506 36.6668 31.3006 36.6668 25.0006V15.0006C36.6668 6.66732 33.3335 3.33398 25.0002 3.33398ZM20.0002 23.6173C16.7002 23.6173 14.0335 20.934 14.0335 17.634C14.0335 14.334 16.7002 11.6673 20.0002 11.6673C23.3002 11.6673 25.9668 14.334 25.9668 17.634C25.9668 20.934 23.3002 23.6173 20.0002 23.6173Z" stroke="#E7CA83" stroke-width="2.5" stroke-linecap="round" stroke-linejoin="round"/>
<path d="M19.9999 24.866C16.0165 24.866 12.7832 21.616 12.7832 17.6327C12.7832 13.6494 16.0165 10.416 19.9999 10.416C23.9832 10.416 27.2165 13.6494 27.2165 17.6327C27.2165 21.616 23.9832 24.866 19.9999 24.866ZM19.9999 12.916C17.3999 12.916 15.2832 15.0327 15.2832 17.6327C15.2832 20.2494 17.3999 22.366 19.9999 22.366C22.5999 22.366 24.7165 20.2494 24.7165 17.6327C24.7165 15.0327 22.5999 12.916 19.9999 12.916Z" fill="#E7CA83"/>
</svg>
