<svg width="41" height="37" viewBox="0 0 41 37" fill="none" xmlns="http://www.w3.org/2000/svg">
<path d="M20.5 36.5928C19.9188 36.5928 19.3563 36.5178 18.8875 36.349C11.725 33.8928 0.34375 25.174 0.34375 12.2928C0.34375 5.73027 5.65 0.405273 12.175 0.405273C15.3438 0.405273 18.3062 1.64277 20.5 3.85527C22.6938 1.64277 25.6562 0.405273 28.825 0.405273C35.35 0.405273 40.6562 5.74902 40.6562 12.2928C40.6562 25.1928 29.275 33.8928 22.1125 36.349C21.6437 36.5178 21.0812 36.5928 20.5 36.5928ZM12.175 3.21777C7.20625 3.21777 3.15625 7.28652 3.15625 12.2928C3.15625 25.099 15.475 32.224 19.8062 33.7053C20.1438 33.8178 20.875 33.8178 21.2125 33.7053C25.525 32.224 37.8625 25.1178 37.8625 12.2928C37.8625 7.28652 33.8125 3.21777 28.8438 3.21777C25.9938 3.21777 23.35 4.54902 21.6437 6.85527C21.1187 7.56777 19.9187 7.56777 19.3937 6.85527C17.65 4.53027 15.025 3.21777 12.175 3.21777Z" fill="#E7CA83"/>
</svg>
