<svg width="40" height="40" viewBox="0 0 40 40" fill="none" xmlns="http://www.w3.org/2000/svg">
<path d="M29.9996 13.1834C29.9496 13.1834 29.9163 13.1834 29.8663 13.1834H29.783C26.633 13.0834 24.283 10.6501 24.283 7.6501C24.283 4.58343 26.783 2.1001 29.833 2.1001C32.883 2.1001 35.383 4.6001 35.383 7.6501C35.3663 10.6668 33.0163 13.1001 30.0163 13.2001C30.0163 13.1834 30.0163 13.1834 29.9996 13.1834ZM29.833 4.58344C28.1496 4.58344 26.783 5.95011 26.783 7.63344C26.783 9.28344 28.0663 10.6168 29.7163 10.6834C29.733 10.6668 29.8663 10.6668 30.0163 10.6834C31.633 10.6001 32.883 9.26678 32.8996 7.63344C32.8996 5.95011 31.533 4.58344 29.833 4.58344Z" fill="#E7CA83"/>
<path d="M30.0167 25.4668C29.3667 25.4668 28.7168 25.4167 28.0668 25.3001C27.3834 25.1834 26.9334 24.5334 27.0501 23.8501C27.1667 23.1667 27.8167 22.7167 28.5001 22.8334C30.5501 23.1834 32.7168 22.8001 34.1668 21.8334C34.9501 21.3168 35.3668 20.6667 35.3668 20.0167C35.3668 19.3667 34.9334 18.7334 34.1668 18.2167C32.7168 17.2501 30.5168 16.8667 28.4501 17.2334C27.7668 17.3667 27.1168 16.9001 27.0001 16.2167C26.8834 15.5334 27.3334 14.8834 28.0168 14.7668C30.7334 14.2834 33.5501 14.8001 35.5501 16.1334C37.0168 17.1167 37.8668 18.5167 37.8668 20.0167C37.8668 21.5001 37.0334 22.9168 35.5501 23.9168C34.0334 24.9168 32.0667 25.4668 30.0167 25.4668Z" fill="#E7CA83"/>
<path d="M9.95005 13.1833C9.93339 13.1833 9.91672 13.1833 9.91672 13.1833C6.91672 13.0833 4.56672 10.6499 4.55005 7.64991C4.55005 4.58325 7.05005 2.08325 10.1001 2.08325C13.1501 2.08325 15.65 4.58326 15.65 7.63326C15.65 10.6499 13.3001 13.0833 10.3001 13.1833L9.95005 11.9333L10.0667 13.1833C10.0334 13.1833 9.98339 13.1833 9.95005 13.1833ZM10.1167 10.6833C10.2167 10.6833 10.3001 10.6832 10.4001 10.6999C11.8834 10.6332 13.1834 9.29991 13.1834 7.64991C13.1834 5.96658 11.8167 4.59991 10.1334 4.59991C8.45005 4.59991 7.08338 5.96658 7.08338 7.64991C7.08338 9.28325 8.35005 10.5999 9.96672 10.6999C9.98338 10.6832 10.05 10.6833 10.1167 10.6833Z" fill="#E7CA83"/>
<path d="M9.93325 25.4668C7.88325 25.4668 5.91658 24.9168 4.39992 23.9168C2.93325 22.9334 2.08325 21.5167 2.08325 20.0167C2.08325 18.5334 2.93325 17.1167 4.39992 16.1334C6.39992 14.8001 9.21659 14.2834 11.9333 14.7668C12.6166 14.8834 13.0666 15.5334 12.9499 16.2167C12.8333 16.9001 12.1833 17.3667 11.4999 17.2334C9.43326 16.8667 7.24992 17.2501 5.78325 18.2167C4.99992 18.7334 4.58325 19.3667 4.58325 20.0167C4.58325 20.6667 5.01659 21.3168 5.78325 21.8334C7.23325 22.8001 9.39992 23.1834 11.4499 22.8334C12.1333 22.7167 12.7833 23.1834 12.8999 23.8501C13.0166 24.5334 12.5666 25.1834 11.8833 25.3001C11.2333 25.4167 10.5833 25.4668 9.93325 25.4668Z" fill="#E7CA83"/>
<path d="M19.9996 25.6334C19.9496 25.6334 19.9163 25.6334 19.8663 25.6334H19.783C16.633 25.5334 14.283 23.1001 14.283 20.1001C14.283 17.0334 16.783 14.55 19.833 14.55C22.883 14.55 25.383 17.0501 25.383 20.1001C25.3663 23.1167 23.0163 25.5501 20.0163 25.6501C20.0163 25.6334 20.0163 25.6334 19.9996 25.6334ZM19.833 17.0334C18.1496 17.0334 16.783 18.4001 16.783 20.0834C16.783 21.7334 18.0663 23.0667 19.7163 23.1334C19.733 23.1167 19.8663 23.1167 20.0163 23.1334C21.633 23.0501 22.883 21.7167 22.8996 20.0834C22.8996 18.4167 21.533 17.0334 19.833 17.0334Z" fill="#E7CA83"/>
<path d="M19.9997 37.9332C17.9997 37.9332 15.9997 37.4166 14.4497 36.3666C12.9831 35.3832 12.1331 33.9832 12.1331 32.4832C12.1331 30.9999 12.9664 29.5665 14.4497 28.5832C17.5664 26.5165 22.4497 26.5165 25.5497 28.5832C27.0164 29.5665 27.8664 30.9665 27.8664 32.4665C27.8664 33.9499 27.0331 35.3832 25.5497 36.3666C23.9997 37.3999 21.9997 37.9332 19.9997 37.9332ZM15.8331 30.6832C15.0497 31.1999 14.6331 31.8499 14.6331 32.4999C14.6331 33.1499 15.0664 33.7832 15.8331 34.2999C18.0831 35.8165 21.8997 35.8165 24.1497 34.2999C24.9331 33.7832 25.3497 33.1332 25.3497 32.4832C25.3497 31.8332 24.9164 31.1999 24.1497 30.6832C21.9164 29.1666 18.0997 29.1832 15.8331 30.6832Z" fill="#E7CA83"/>
</svg>
