<svg width="50" height="50" viewBox="0 0 50 50" fill="none" xmlns="http://www.w3.org/2000/svg">
<path d="M25.1458 45.7917C22.2083 45.7917 19.2499 44.6667 17.0208 42.4375L7.58327 33C5.29161 30.7083 4.08327 27.5417 4.22911 24.3125L4.72911 13.8958C4.95827 8.91667 8.89577 4.97917 13.8958 4.72917L24.3124 4.22917C27.5416 4.10417 30.7083 5.29167 32.9999 7.58333L42.4374 17.0208C46.9166 21.5 46.9166 28.8125 42.4374 33.2917L33.2916 42.4375C31.0416 44.6667 28.1041 45.7917 25.1458 45.7917ZM9.79161 30.7708L19.2291 40.2083C20.8124 41.7917 22.9166 42.6667 25.1458 42.6667C27.3749 42.6667 29.4791 41.7917 31.0624 40.2083L40.2083 31.0625C41.7916 29.4792 42.6666 27.375 42.6666 25.1458C42.6666 22.9167 41.7916 20.8125 40.2083 19.2292L30.7708 9.79167C29.1041 8.125 26.7916 7.22917 24.4583 7.35417L14.0416 7.85417C10.6458 8 7.99994 10.6458 7.83327 14.0208L7.33327 24.4375C7.22911 26.7917 8.12494 29.1042 9.79161 30.7708Z" fill="#E8CD8B"/>
<path d="M19.7917 26.5625C16.0625 26.5625 13.0209 23.5208 13.0209 19.7917C13.0209 16.0625 16.0625 13.0208 19.7917 13.0208C23.5209 13.0208 26.5625 16.0625 26.5625 19.7917C26.5625 23.5208 23.5209 26.5625 19.7917 26.5625ZM19.7917 16.1458C17.7917 16.1458 16.1459 17.7917 16.1459 19.7917C16.1459 21.7917 17.7917 23.4375 19.7917 23.4375C21.7917 23.4375 23.4375 21.7917 23.4375 19.7917C23.4375 17.7917 21.7917 16.1458 19.7917 16.1458Z" fill="#E8CD8B"/>
</svg>
