<svg width="35" height="35" viewBox="0 0 35 35" fill="none" xmlns="http://www.w3.org/2000/svg">
<path d="M24.5937 30.2604H10.1268C3.74691 30.2604 1.80835 28.3062 1.80835 21.875V21.1458C1.80835 20.5479 2.30022 20.0521 2.89337 20.0521C4.28219 20.0521 5.42507 18.9 5.42507 17.5C5.42507 16.1 4.28219 14.9479 2.89337 14.9479C2.30022 14.9479 1.80835 14.4521 1.80835 13.8541V13.125C1.80835 6.69373 3.74691 4.73956 10.1268 4.73956H24.5937C30.9736 4.73956 32.9122 6.69373 32.9122 13.125V14.5833C32.9122 15.1812 32.4203 15.6771 31.8272 15.6771C30.4383 15.6771 29.2955 16.8291 29.2955 18.2291C29.2955 19.6291 30.4383 20.7812 31.8272 20.7812C32.4203 20.7812 32.9122 21.2771 32.9122 21.875C32.9122 28.3062 30.9736 30.2604 24.5937 30.2604ZM3.97838 22.1083C4.00732 27.125 5.03447 28.0729 10.1268 28.0729H24.5937C29.4257 28.0729 30.5975 27.2125 30.7277 22.8375C28.6589 22.3416 27.1254 20.4604 27.1254 18.2291C27.1254 15.9979 28.6734 14.1166 30.7421 13.6208V13.125C30.7421 7.91873 29.7729 6.92706 24.5937 6.92706H10.1268C5.03447 6.92706 4.00732 7.87498 3.97838 12.8916C6.04715 13.3875 7.59511 15.2687 7.59511 17.5C7.59511 19.7312 6.04715 21.6125 3.97838 22.1083Z" fill="#E8CD8B"/>
<path d="M14.4669 10.5729C13.8737 10.5729 13.3818 10.0771 13.3818 9.47915V5.83331C13.3818 5.2354 13.8737 4.73956 14.4669 4.73956C15.06 4.73956 15.5519 5.2354 15.5519 5.83331V9.47915C15.5519 10.0771 15.06 10.5729 14.4669 10.5729Z" fill="#E8CD8B"/>
<path d="M14.4669 21.2625C13.8737 21.2625 13.3818 20.7667 13.3818 20.1687V14.8167C13.3818 14.2187 13.8737 13.7229 14.4669 13.7229C15.06 13.7229 15.5519 14.2187 15.5519 14.8167V20.1687C15.5519 20.7812 15.06 21.2625 14.4669 21.2625Z" fill="#E8CD8B"/>
<path d="M14.4669 30.2604C13.8737 30.2604 13.3818 29.7646 13.3818 29.1667V25.5208C13.3818 24.9229 13.8737 24.4271 14.4669 24.4271C15.06 24.4271 15.5519 24.9229 15.5519 25.5208V29.1667C15.5519 29.7646 15.06 30.2604 14.4669 30.2604Z" fill="#E8CD8B"/>
</svg>
