<svg width="50" height="50" viewBox="0 0 50 50" fill="none" xmlns="http://www.w3.org/2000/svg">
<path d="M27.0834 30.7292H4.16669C3.31252 30.7292 2.60419 30.0208 2.60419 29.1667V12.5C2.60419 7.04166 7.04169 2.60416 12.5 2.60416H31.25C32.1042 2.60416 32.8125 3.31249 32.8125 4.16666V25C32.8125 28.1667 30.25 30.7292 27.0834 30.7292ZM5.72919 27.6042H27.0834C28.5209 27.6042 29.6875 26.4375 29.6875 25V5.72916H12.5C8.77085 5.72916 5.72919 8.77082 5.72919 12.5V27.6042Z" fill="#E8CD8B"/>
<path d="M39.5834 43.2292H37.5C36.6459 43.2292 35.9375 42.5208 35.9375 41.6667C35.9375 40.2292 34.7709 39.0625 33.3334 39.0625C31.8959 39.0625 30.7292 40.2292 30.7292 41.6667C30.7292 42.5208 30.0209 43.2292 29.1667 43.2292H20.8334C19.9792 43.2292 19.2709 42.5208 19.2709 41.6667C19.2709 40.2292 18.1042 39.0625 16.6667 39.0625C15.2292 39.0625 14.0625 40.2292 14.0625 41.6667C14.0625 42.5208 13.3542 43.2292 12.5 43.2292H10.4167C6.10419 43.2292 2.60419 39.7292 2.60419 35.4167V29.1667C2.60419 28.3125 3.31252 27.6042 4.16669 27.6042H27.0834C28.5209 27.6042 29.6875 26.4375 29.6875 25V10.4167C29.6875 9.56249 30.3959 8.85416 31.25 8.85416H35.0833C37.1458 8.85416 39.0417 9.95835 40.0625 11.75L43.625 17.9792C43.8959 18.4583 43.8959 19.0625 43.625 19.5417C43.3542 20.0208 42.8334 20.3125 42.2709 20.3125H39.5834C39.2917 20.3125 39.0625 20.5417 39.0625 20.8333V27.0833C39.0625 27.375 39.2917 27.6042 39.5834 27.6042H45.8334C46.6875 27.6042 47.3959 28.3125 47.3959 29.1667V35.4167C47.3959 39.7292 43.8959 43.2292 39.5834 43.2292ZM38.8542 40.1042H39.5834C42.1667 40.1042 44.2709 38 44.2709 35.4167V30.7292H39.5834C37.5834 30.7292 35.9375 29.0833 35.9375 27.0833V20.8333C35.9375 18.8333 37.5625 17.1875 39.5834 17.1875L37.3542 13.2917C36.8958 12.4792 36.0208 11.9792 35.0833 11.9792H32.8125V25C32.8125 28.1667 30.25 30.7292 27.0834 30.7292H5.72919V35.4167C5.72919 38 7.83335 40.1042 10.4167 40.1042H11.1459C11.8334 37.7083 14.0417 35.9375 16.6667 35.9375C19.2917 35.9375 21.5 37.7083 22.1875 40.1042H27.8333C28.5208 37.7083 30.7292 35.9375 33.3542 35.9375C35.9792 35.9375 38.1667 37.7083 38.8542 40.1042Z" fill="#E8CD8B"/>
<path d="M16.6667 47.3958C13.5 47.3958 10.9375 44.8333 10.9375 41.6667C10.9375 38.5 13.5 35.9375 16.6667 35.9375C19.8333 35.9375 22.3958 38.5 22.3958 41.6667C22.3958 44.8333 19.8333 47.3958 16.6667 47.3958ZM16.6667 39.0625C15.2292 39.0625 14.0625 40.2292 14.0625 41.6667C14.0625 43.1042 15.2292 44.2708 16.6667 44.2708C18.1042 44.2708 19.2708 43.1042 19.2708 41.6667C19.2708 40.2292 18.1042 39.0625 16.6667 39.0625Z" fill="#E8CD8B"/>
<path d="M33.3334 47.3958C30.1667 47.3958 27.6042 44.8333 27.6042 41.6667C27.6042 38.5 30.1667 35.9375 33.3334 35.9375C36.5 35.9375 39.0625 38.5 39.0625 41.6667C39.0625 44.8333 36.5 47.3958 33.3334 47.3958ZM33.3334 39.0625C31.8959 39.0625 30.7292 40.2292 30.7292 41.6667C30.7292 43.1042 31.8959 44.2708 33.3334 44.2708C34.7709 44.2708 35.9375 43.1042 35.9375 41.6667C35.9375 40.2292 34.7709 39.0625 33.3334 39.0625Z" fill="#E8CD8B"/>
<path d="M45.8333 30.7292H39.5833C37.5833 30.7292 35.9375 29.0833 35.9375 27.0833V20.8333C35.9375 18.8333 37.5833 17.1875 39.5833 17.1875H42.2709C42.8334 17.1875 43.3542 17.4792 43.625 17.9792L47.1875 24.2292C47.3125 24.4583 47.3958 24.7292 47.3958 25V29.1667C47.3958 30.0208 46.6875 30.7292 45.8333 30.7292ZM39.5833 20.3125C39.2917 20.3125 39.0625 20.5417 39.0625 20.8333V27.0833C39.0625 27.375 39.2917 27.6042 39.5833 27.6042H44.2708V25.4167L41.3542 20.3125H39.5833Z" fill="#E8CD8B"/>
</svg>
